<?xml version="1.0" encoding="UTF-8" standalone="no"?>
<!-- Generator: Adobe Illustrator 18.1.1, SVG Export Plug-In . SVG Version: 6.00 Build 0)  -->

<svg
   xmlns:dc="http://purl.org/dc/elements/1.1/"
   xmlns:cc="http://creativecommons.org/ns#"
   xmlns:rdf="http://www.w3.org/1999/02/22-rdf-syntax-ns#"
   xmlns:svg="http://www.w3.org/2000/svg"
   xmlns="http://www.w3.org/2000/svg"
   xmlns:sodipodi="http://sodipodi.sourceforge.net/DTD/sodipodi-0.dtd"
   xmlns:inkscape="http://www.inkscape.org/namespaces/inkscape"
   version="1.1"
   id="Sound"
   x="0px"
   y="0px"
   viewBox="0 0 20 20"
   enable-background="new 0 0 20 20"
   xml:space="preserve"
   inkscape:version="0.48.5 r10040"
   width="100%"
   height="100%"
   sodipodi:docname="sound.svg"><metadata
     id="metadata5930"><rdf:RDF><cc:Work
         rdf:about=""><dc:format>image/svg+xml</dc:format><dc:type
           rdf:resource="http://purl.org/dc/dcmitype/StillImage" /></cc:Work></rdf:RDF></metadata><defs
     id="defs5928" /><sodipodi:namedview
     pagecolor="#ffffff"
     bordercolor="#666666"
     borderopacity="1"
     objecttolerance="10"
     gridtolerance="10"
     guidetolerance="10"
     inkscape:pageopacity="0"
     inkscape:pageshadow="2"
     inkscape:window-width="1280"
     inkscape:window-height="722"
     id="namedview5926"
     showgrid="false"
     inkscape:zoom="11.8"
     inkscape:cx="-0.63559322"
     inkscape:cy="10"
     inkscape:window-x="0"
     inkscape:window-y="25"
     inkscape:window-maximized="1"
     inkscape:current-layer="Sound" /><g
     id="g5377"
     transform="matrix(0.5946086,0,0,0.67531159,173.36542,-887.99451)"><path
       sodipodi:nodetypes="cccccsccscccccccsccscccc"
       inkscape:connector-curvature="0"
       id="rect3616"
       d="m -278.20156,1319.8679 c -0.0993,0 -0.19051,0.022 -0.28285,0.051 -0.0992,0.015 -0.19604,0.059 -0.28285,0.1285 -0.073,0.048 -0.13837,0.1045 -0.20571,0.1672 l -5.52848,5.2695 -4.30707,0 c -0.44097,0 -0.79713,0.3432 -0.79713,0.7842 l 0,6.9465 c 0,0.441 0.35696,0.7706 0.79713,0.7971 l 4.33278,0 5.34848,5.1281 0.0257,0.025 c 0.11766,0.129 0.24837,0.2286 0.38571,0.3086 0.025,0.019 0.0507,0.036 0.0771,0.051 0.0116,0.01 0.0269,0.01 0.0385,0.013 0.0128,0 0.0256,0.01 0.0385,0.013 0.11607,0.047 0.23226,0.077 0.35999,0.077 0.56769,0 1.03653,-0.5073 1.34998,-1.1056 0.31345,-0.5985 0.52634,-1.3375 0.71999,-2.2114 0.38728,-1.7479 0.61713,-4.0352 0.61713,-6.5571 0,-2.5218 -0.22985,-4.8092 -0.61713,-6.557 -0.19365,-0.8739 -0.40654,-1.6131 -0.71999,-2.2114 -0.31345,-0.5984 -0.78228,-1.1186 -1.34998,-1.1186 z"
       style="color:#000000;fill:#092a35;fill-opacity:1;fill-rule:nonzero;stroke:none;stroke-width:2;marker:none;visibility:visible;display:inline;overflow:visible;enable-background:accumulate" /><path
       d="m -264.73109,1317.8129 a 21.386904,21.344435 0 0 1 0,23.871 m -3.97185,-21.2139 a 16.585762,16.552827 0 0 1 0,18.5567 m -3.97185,-15.8559 a 11.784621,11.76122 0 0 1 0,13.1551"
       style="fill:none;stroke:#092a35;stroke-width:2.23620772;stroke-linecap:round;stroke-linejoin:round;stroke-miterlimit:4;stroke-opacity:1;stroke-dasharray:none"
       id="path4616"
       inkscape:connector-curvature="0" /></g></svg>